# xmcd
#
# Track frame offsets:
#	150
#	17844
#	37732
#	57620
#	75157
#	96144
#	117443
#	130480
#	149585
#	169473
#	190145
#	207527
#
# Disc length: 3046 seconds
#
# Revision: 0
# Processed by: cddbd v1.5.1PL0 Copyright (c) Steve Scherf et al.
# Submitted via: dBpowerAMP V4.0
#
DISCID=ad0be40c
DTITLE=Donell Jones - Life Goes On
DYEAR=1900
DGENRE=R&B
TTITLE0=Still
TTITLE1=Put Me Down
TTITLE2=You Know That I Love You
TTITLE3=Where Are You
TTITLE4=Do U Wanna
TTITLE5=Life Goes On
TTITLE6=Freakin' U
TTITLE7=Gotta Get Her
TTITLE8=Lovin You
TTITLE9=Guilty By Suspicion
TTITLE10=Don't Leave
TTITLE11=Come Back
EXTD=
EXTT0=
EXTT1=
EXTT2=
EXTT3=
EXTT4=
EXTT5=
EXTT6=
EXTT7=
EXTT8=
EXTT9=
EXTT10=
EXTT11=
PLAYORDER=
